<mxfile host="app.diagrams.net" agent="Mozilla/5.0 (Windows NT 10.0; Win64; x64; rv:137.0) Gecko/20100101 Firefox/137.0" version="26.2.13">
  <diagram name="Page-1" id="oBoMtTXuPNJfdkDPqrHE">
    <mxGraphModel dx="1044" dy="615" grid="1" gridSize="10" guides="1" tooltips="1" connect="1" arrows="1" fold="1" page="1" pageScale="1" pageWidth="850" pageHeight="1100" background="#F1F3F4" math="0" shadow="0">
      <root>
        <mxCell id="0" />
        <mxCell id="1" parent="0" />
        <mxCell id="Cjyan4-toyM-WMKIcCKi-63" style="edgeStyle=none;curved=1;rounded=0;orthogonalLoop=1;jettySize=auto;html=1;exitX=0.5;exitY=1;exitDx=0;exitDy=0;entryX=0.5;entryY=0;entryDx=0;entryDy=0;fontSize=12;startSize=8;endSize=8;" edge="1" parent="1" source="Cjyan4-toyM-WMKIcCKi-1" target="Cjyan4-toyM-WMKIcCKi-47">
          <mxGeometry relative="1" as="geometry" />
        </mxCell>
        <mxCell id="Cjyan4-toyM-WMKIcCKi-1" value="START" style="rounded=1;whiteSpace=wrap;html=1;" vertex="1" parent="1">
          <mxGeometry x="240" y="100" width="120" height="60" as="geometry" />
        </mxCell>
        <mxCell id="Cjyan4-toyM-WMKIcCKi-49" style="edgeStyle=none;curved=1;rounded=0;orthogonalLoop=1;jettySize=auto;html=1;exitX=0.5;exitY=1;exitDx=0;exitDy=0;entryX=0.5;entryY=0;entryDx=0;entryDy=0;fontSize=12;startSize=8;endSize=8;" edge="1" parent="1" source="Cjyan4-toyM-WMKIcCKi-47" target="Cjyan4-toyM-WMKIcCKi-48">
          <mxGeometry relative="1" as="geometry" />
        </mxCell>
        <mxCell id="Cjyan4-toyM-WMKIcCKi-47" value="&lt;div&gt;i = 0&lt;/div&gt;" style="rounded=0;whiteSpace=wrap;html=1;" vertex="1" parent="1">
          <mxGeometry x="240" y="200" width="120" height="60" as="geometry" />
        </mxCell>
        <mxCell id="Cjyan4-toyM-WMKIcCKi-53" style="edgeStyle=none;curved=1;rounded=0;orthogonalLoop=1;jettySize=auto;html=1;exitX=0.5;exitY=1;exitDx=0;exitDy=0;entryX=0.5;entryY=0;entryDx=0;entryDy=0;fontSize=12;startSize=8;endSize=8;" edge="1" parent="1" source="Cjyan4-toyM-WMKIcCKi-48" target="Cjyan4-toyM-WMKIcCKi-52">
          <mxGeometry relative="1" as="geometry" />
        </mxCell>
        <mxCell id="Cjyan4-toyM-WMKIcCKi-48" value="True" style="rhombus;whiteSpace=wrap;html=1;" vertex="1" parent="1">
          <mxGeometry x="260" y="300" width="80" height="80" as="geometry" />
        </mxCell>
        <mxCell id="Cjyan4-toyM-WMKIcCKi-57" style="edgeStyle=none;curved=1;rounded=0;orthogonalLoop=1;jettySize=auto;html=1;exitX=0.5;exitY=0;exitDx=0;exitDy=0;entryX=0.5;entryY=1;entryDx=0;entryDy=0;fontSize=12;startSize=8;endSize=8;" edge="1" parent="1" source="Cjyan4-toyM-WMKIcCKi-50" target="Cjyan4-toyM-WMKIcCKi-51">
          <mxGeometry relative="1" as="geometry" />
        </mxCell>
        <mxCell id="Cjyan4-toyM-WMKIcCKi-50" value="print(i)" style="rounded=0;whiteSpace=wrap;html=1;" vertex="1" parent="1">
          <mxGeometry x="360" y="480" width="120" height="60" as="geometry" />
        </mxCell>
        <mxCell id="Cjyan4-toyM-WMKIcCKi-58" style="edgeStyle=none;curved=1;rounded=0;orthogonalLoop=1;jettySize=auto;html=1;exitX=0;exitY=0;exitDx=0;exitDy=0;entryX=1;entryY=1;entryDx=0;entryDy=0;fontSize=12;startSize=8;endSize=8;" edge="1" parent="1" source="Cjyan4-toyM-WMKIcCKi-51" target="Cjyan4-toyM-WMKIcCKi-48">
          <mxGeometry relative="1" as="geometry" />
        </mxCell>
        <mxCell id="Cjyan4-toyM-WMKIcCKi-51" value="i += 1" style="rounded=0;whiteSpace=wrap;html=1;" vertex="1" parent="1">
          <mxGeometry x="360" y="380" width="120" height="60" as="geometry" />
        </mxCell>
        <mxCell id="Cjyan4-toyM-WMKIcCKi-54" style="edgeStyle=none;curved=1;rounded=0;orthogonalLoop=1;jettySize=auto;html=1;exitX=1;exitY=1;exitDx=0;exitDy=0;entryX=0;entryY=0.5;entryDx=0;entryDy=0;fontSize=12;startSize=8;endSize=8;fillColor=#f8cecc;strokeColor=#b85450;" edge="1" parent="1" source="Cjyan4-toyM-WMKIcCKi-52" target="Cjyan4-toyM-WMKIcCKi-50">
          <mxGeometry relative="1" as="geometry" />
        </mxCell>
        <mxCell id="Cjyan4-toyM-WMKIcCKi-60" style="edgeStyle=none;curved=1;rounded=0;orthogonalLoop=1;jettySize=auto;html=1;exitX=0;exitY=1;exitDx=0;exitDy=0;entryX=1;entryY=0.5;entryDx=0;entryDy=0;fontSize=12;startSize=8;endSize=8;" edge="1" parent="1" source="Cjyan4-toyM-WMKIcCKi-52" target="Cjyan4-toyM-WMKIcCKi-59">
          <mxGeometry relative="1" as="geometry" />
        </mxCell>
        <mxCell id="Cjyan4-toyM-WMKIcCKi-52" value="i == 3" style="rhombus;whiteSpace=wrap;html=1;" vertex="1" parent="1">
          <mxGeometry x="260" y="420" width="80" height="80" as="geometry" />
        </mxCell>
        <mxCell id="Cjyan4-toyM-WMKIcCKi-62" style="edgeStyle=none;curved=1;rounded=0;orthogonalLoop=1;jettySize=auto;html=1;exitX=0.5;exitY=0;exitDx=0;exitDy=0;entryX=0.5;entryY=1;entryDx=0;entryDy=0;fontSize=12;startSize=8;endSize=8;" edge="1" parent="1" source="Cjyan4-toyM-WMKIcCKi-59" target="Cjyan4-toyM-WMKIcCKi-61">
          <mxGeometry relative="1" as="geometry" />
        </mxCell>
        <mxCell id="Cjyan4-toyM-WMKIcCKi-59" value="break" style="rounded=0;whiteSpace=wrap;html=1;" vertex="1" parent="1">
          <mxGeometry x="120" y="480" width="120" height="60" as="geometry" />
        </mxCell>
        <mxCell id="Cjyan4-toyM-WMKIcCKi-61" value="END" style="rounded=1;whiteSpace=wrap;html=1;" vertex="1" parent="1">
          <mxGeometry x="120" y="380" width="120" height="60" as="geometry" />
        </mxCell>
      </root>
    </mxGraphModel>
  </diagram>
</mxfile>
